<svg height='100px' width='100px'  fill="#3aa137" xmlns="http://www.w3.org/2000/svg" xmlns:xlink="http://www.w3.org/1999/xlink" xml:space="preserve" version="1.1" style="shape-rendering:geometricPrecision;text-rendering:geometricPrecision;image-rendering:optimizeQuality;" viewBox="0 0 3.806 3.785" x="0px" y="0px" fill-rule="evenodd" clip-rule="evenodd"><defs><style type="text/css">
   
    .fil0 {fill:#3aa137;fill-rule:nonzero}
   
  </style></defs><g><path class="fil0" d="M1.359 0.666c-0.069,-0.077 -0.122,-0.162 -0.153,-0.248 -0.047,-0.127 -0.051,-0.256 -0.004,-0.365 0.019,-0.044 0.071,-0.065 0.115,-0.046 0.045,0.019 0.065,0.071 0.046,0.116 -0.028,0.065 -0.023,0.149 0.008,0.234 0.03,0.082 0.085,0.163 0.159,0.232 0.112,-0.038 0.239,-0.059 0.373,-0.059 0.134,0 0.261,0.021 0.374,0.059 0.074,-0.069 0.128,-0.15 0.158,-0.232 0.032,-0.085 0.037,-0.169 0.008,-0.234 -0.019,-0.045 0.002,-0.097 0.046,-0.116 0.045,-0.019 0.097,0.002 0.116,0.046 0.047,0.109 0.043,0.238 -0.004,0.365 -0.032,0.086 -0.084,0.171 -0.153,0.248 0.012,0.006 0.023,0.013 0.034,0.021 0.161,0.104 0.261,0.251 0.261,0.417 0,0.166 -0.1,0.313 -0.261,0.417 -0.149,0.097 -0.354,0.157 -0.579,0.157 -0.224,0 -0.429,-0.06 -0.579,-0.157 -0.161,-0.104 -0.26,-0.251 -0.26,-0.417 0,-0.166 0.099,-0.313 0.26,-0.417 0.011,-0.008 0.023,-0.015 0.035,-0.021zm1.41 2.344l0.441 0.311c0.019,0.013 0.031,0.032 0.035,0.052l0.071 0.304c0.011,0.047 -0.018,0.095 -0.066,0.106 -0.047,0.011 -0.095,-0.019 -0.106,-0.066l-0.063 -0.271 -0.409 -0.288c-0.017,0.022 -0.034,0.043 -0.051,0.063 -0.163,0.186 -0.378,0.315 -0.629,0.34l0 -1.709c0.205,-0.013 0.414,-0.071 0.586,-0.182 0.035,-0.023 0.069,-0.048 0.1,-0.075 0.059,0.066 0.108,0.138 0.147,0.214l0.452 -0.229 0.093 -0.415c0.011,-0.047 0.058,-0.077 0.105,-0.067 0.048,0.011 0.078,0.058 0.067,0.106l-0.102 0.455c-0.006,0.027 -0.024,0.048 -0.047,0.059l-0.502 0.254c0.037,0.117 0.055,0.24 0.055,0.364l0 0.021 0.536 0.039c0.028,0.002 0.051,0.016 0.066,0.038l0.24 0.311c0.03,0.038 0.023,0.094 -0.016,0.123 -0.038,0.03 -0.094,0.023 -0.123,-0.016l-0.219 -0.283 -0.499 -0.036c-0.014,0.095 -0.038,0.188 -0.071,0.277 -0.025,0.07 -0.056,0.137 -0.091,0.2zm-1.634 0.148l-0.41 0.288 -0.063 0.271c-0.011,0.047 -0.058,0.077 -0.106,0.066 -0.047,-0.011 -0.077,-0.059 -0.066,-0.106l0.071 -0.304c0.005,-0.02 0.017,-0.039 0.035,-0.052l0.442 -0.311c-0.036,-0.063 -0.067,-0.13 -0.092,-0.2 -0.033,-0.089 -0.057,-0.182 -0.071,-0.277l-0.498 0.036 -0.219 0.283c-0.03,0.039 -0.085,0.046 -0.124,0.016 -0.038,-0.029 -0.045,-0.085 -0.016,-0.123l0.24 -0.311c0.015,-0.022 0.039,-0.036 0.067,-0.038l0.536 -0.039 0 -0.021c0,-0.124 0.017,-0.247 0.054,-0.364l-0.502 -0.253c-0.023,-0.012 -0.04,-0.033 -0.046,-0.06l-0.102 -0.455c-0.011,-0.048 0.019,-0.095 0.066,-0.106 0.048,-0.01 0.095,0.02 0.105,0.067l0.093 0.415 0.453 0.229c0.039,-0.076 0.087,-0.148 0.146,-0.214 0.031,0.027 0.065,0.052 0.1,0.075 0.173,0.111 0.381,0.169 0.587,0.182l0 1.709c-0.251,-0.025 -0.467,-0.154 -0.629,-0.34 -0.018,-0.02 -0.035,-0.041 -0.051,-0.063z"></path></g></svg>